<?xml version="1.0" standalone="no"?><!DOCTYPE svg PUBLIC "-//W3C//DTD SVG 1.1//EN" "http://www.w3.org/Graphics/SVG/1.1/DTD/svg11.dtd"><svg t="1614517686579" class="icon" viewBox="0 0 1024 1024" version="1.1" xmlns="http://www.w3.org/2000/svg" p-id="3463" xmlns:xlink="http://www.w3.org/1999/xlink" width="200" height="200"><defs><style type="text/css"></style></defs><path d="M550.485333 81.322667a429.44 429.44 0 0 0-336.213333 158.165333 434.346667 434.346667 0 0 0-12.074667 15.232l0.170667-0.128c9.898667-8.362667 20.181333-14.72 30.592-18.986667l2.474667-0.981333c12.757333-4.778667 25.685333-6.272 38.4-3.754667 61.44 12.330667 93.44 111.317333 71.466666 221.141334-21.973333 109.824-89.6 188.885333-151.04 176.597333-43.093333-8.618667-71.594667-59.946667-77.312-127.658667v-0.213333 2.218667a379.306667 379.306667 0 0 0 0 17.066666v3.114667l0.085334 2.517333a459.008 459.008 0 0 0 1.834666 27.434667 428.032 428.032 0 0 0 41.002667 146.901333c2.56 5.376 1.28 11.776-3.328 15.488l-11.818667 9.642667a38.656 38.656 0 0 0-12.373333 41.386667c0 0.256 0.128 0.426667 0.256 0.725333a40.746667 40.746667 0 0 0 2.517333 6.058667l2.133334-1.664 9.813333-7.424a11.136 11.136 0 1 1 13.482667 17.749333l-10.453334 7.936-1.578666 1.194667 50.218666 61.781333a38.826667 38.826667 0 0 0 54.4 5.589333l11.008-8.96a12.714667 12.714667 0 0 1 15.957334 0 428.8 428.8 0 0 0 278.485333 93.056 428.458667 428.458667 0 0 0 237.738667-79.146666 12.714667 12.714667 0 0 1 16.213333 1.066666l6.954667 6.656a38.784 38.784 0 0 0 50.304 2.517334l-0.170667-0.170667-8.96-8.405333a11.178667 11.178667 0 0 1 15.274667-16.298667l9.6 8.96 53.76-56.576a38.826667 38.826667 0 0 0-1.408-54.698667l-11.221334-10.666666a12.672 12.672 0 0 1-2.304-15.36 429.226667 429.226667 0 0 0 47.061334-284.629334c12.842667-11.861333 36.394667-35.157333 45.610666-55.125333 9.856-21.418667 12.373333-43.52-13.781333-33.792-20.309333 7.552-35.925333 12.416-54.869333 8.106667-60.458667-153.301333-206.805333-264.234667-377.642667-273.066667a414.293333 414.293333 0 0 0-20.181333-0.597333zM96.64 266.538667a52.394667 52.394667 0 0 0-46.165333 75.264 52.48 52.48 0 1 0 32.170666 95.402666c7.552-5.290667 13.056-12.330667 16.853334-20.053333 7.936 14.592 19.626667 26.752 33.194666 35.114667a238.506667 238.506667 0 0 0 0.725334 25.6c4.352 52.394667 26.453333 92.16 59.776 98.816 47.530667 9.514667 99.84-51.626667 116.821333-136.533334 17.024-84.906667-7.722667-161.450667-55.253333-170.965333-18.517333-3.712-37.76 3.413333-55.381334 18.432-19.2 16.341333-36.437333 42.154667-48.64 73.813333-0.426667-0.085333-0.853333-0.128-1.28-0.298666-5.973333-1.706667-9.173333-5.589333-13.312-6.485334a52.48 52.48 0 0 0-39.509333-88.106666z m122.112 53.077333c2.304 0 4.565333 0.170667 6.826667 0.64 30.976 6.101333 47.104 55.978667 36.010666 111.274667-11.050667 55.381333-45.141333 95.146667-76.074666 88.96-21.034667-4.181333-35.157333-28.586667-38.613334-61.141334 7.722667 2.986667 15.786667 4.821333 23.893334 5.205334 22.485333 1.024 37.162667-6.570667 48.64-21.888 14.762667-19.84 3.584-74.794667-15.957334-81.92-15.189333-5.546667-24.192 1.152-37.717333 2.133333a106.666667 106.666667 0 0 1 23.765333-30.72c9.344-7.893333 19.328-12.458667 29.269334-12.586667z" p-id="3464"></path></svg>